<svg width="270" height="259" viewBox="0 0 270 259" fill="none" xmlns="http://www.w3.org/2000/svg">
<path d="M21.4269 169.484C28.9613 220.76 70.6332 262.487 124.389 267.62C143.987 269.492 162.937 266.314 180.023 258.991C175.408 252.882 171.193 246.132 168.568 239.306C155.536 244.41 141.317 246.566 126.534 245.154C75.5785 240.288 38.1112 194.768 42.9922 143.658C44.0972 132.087 47.2763 121.282 52.0602 111.424L50.7009 110.274C47.3532 107.46 41.4095 102.245 35.2801 95.4251C31.8904 101.336 29.0283 107.637 26.7048 114.217C13.3767 115.324 2.3153 125.83 0.995813 139.647C-0.323678 153.464 8.54926 165.873 21.4269 169.484ZM269.773 165.315C271.092 151.498 262.331 139.099 249.331 135.591C244.215 100.415 223.064 69.8298 192.866 52.3231C194.897 26.3319 175.848 3.31531 149.867 0.834056C140.467 -0.0673821 131.01 1.84978 122.695 6.34269C114.38 10.8356 107.579 17.7021 103.156 26.0723C113.685 32.9723 120.217 45.0451 118.962 58.1878C118.876 59.0864 118.779 60.0974 118.47 60.9747C126.758 59.3858 135.387 58.9629 144.235 59.8078C151.514 60.503 158.484 62.0755 165.042 64.4021C159.908 70.8265 151.741 74.6941 142.894 73.8492C136.734 73.261 131.212 77.8346 130.622 84.0128C130.032 90.191 134.589 95.7272 140.748 96.3154C159.227 98.0801 176.148 88.9274 185.468 74.1743C204.781 86.5737 218.825 105.713 224.888 127.896C230.951 150.079 228.603 173.734 218.298 194.292C219.364 194.961 220.542 195.64 221.608 196.309C227.14 194.003 233.226 192.998 239.385 193.586C240.505 193.693 241.625 193.8 242.723 194.131C243.279 193.051 243.61 191.949 244.064 190.745C250.64 190.199 256.816 187.353 261.515 182.705C266.214 178.057 269.137 171.902 269.773 165.315ZM146.38 37.3416C138.317 36.5716 130.392 36.7216 122.626 37.567C127.132 28.2487 136.97 22.2735 147.721 23.3003C158.472 24.327 167.001 32.0562 169.662 42.0589C162.197 39.759 154.443 38.1117 146.38 37.3416Z" fill="url(#paint0_linear_1830_571)"/>
<path d="M129.758 211.399C136.739 212.078 143.786 211.367 150.494 209.305C157.202 207.244 163.438 203.873 168.843 199.386C169.698 198.678 170.406 197.808 170.925 196.826C171.445 195.844 171.767 194.769 171.873 193.662C171.979 192.555 171.866 191.439 171.541 190.376C171.217 189.313 170.687 188.325 169.981 187.468C169.276 186.611 168.409 185.901 167.43 185.381C166.451 184.86 165.379 184.537 164.276 184.432C163.172 184.327 162.059 184.44 160.999 184.766C159.939 185.093 158.954 185.625 158.099 186.333C143.03 198.803 119.087 196.516 106.651 181.42C105.945 180.563 105.078 179.853 104.099 179.333C103.12 178.812 102.049 178.489 100.945 178.384C99.8418 178.279 98.7285 178.392 97.6686 178.718C96.6088 179.045 95.6233 179.577 94.7684 180.285C93.9135 180.993 93.2059 181.863 92.686 182.845C92.1661 183.827 91.8441 184.902 91.7384 186.009C91.6327 187.116 91.7454 188.232 92.07 189.295C92.3946 190.358 92.9247 191.346 93.6302 192.203C98.0945 197.631 103.584 202.121 109.784 205.415C115.983 208.709 122.771 210.742 129.758 211.399ZM214.517 270.56C214.517 270.56 253.316 248.885 255.136 229.833C256.061 220.139 248.303 211.441 237.821 210.44C230.037 209.696 222.915 213.392 219.41 219.326C217.092 212.836 210.798 207.859 203.014 207.116C192.543 206.116 183.268 213.187 182.342 222.882C180.522 241.933 214.517 270.56 214.517 270.56ZM76.3212 149.674C78.5488 149.887 80.7699 149.203 82.496 147.774C84.2221 146.344 85.3116 144.286 85.525 142.052C85.6673 140.562 86.3936 139.19 87.5443 138.237C88.6951 137.284 90.1758 136.828 91.6609 136.97C93.146 137.112 94.5137 137.839 95.4633 138.993C96.4128 140.147 96.8663 141.632 96.724 143.121C96.5107 145.356 97.191 147.583 98.6152 149.313C100.04 151.044 102.091 152.135 104.319 152.348C106.546 152.561 108.768 151.877 110.494 150.448C112.22 149.018 113.309 146.96 113.523 144.725C114.706 132.335 105.623 121.3 93.27 120.12C80.9175 118.94 69.9097 128.057 68.7264 140.447C68.2823 145.098 71.6847 149.232 76.3212 149.674ZM181.253 145.526C182.738 145.668 184.106 146.395 185.056 147.549C186.005 148.703 186.459 150.188 186.316 151.677C186.103 153.912 186.783 156.139 188.208 157.869C189.632 159.6 191.684 160.691 193.911 160.904C196.139 161.117 198.36 160.433 200.086 159.004C201.812 157.574 202.902 155.516 203.115 153.281C204.298 140.891 195.215 129.856 182.862 128.676C170.51 127.497 159.502 136.613 158.319 149.003C158.105 151.238 158.786 153.465 160.21 155.196C161.634 156.926 163.686 158.018 165.914 158.23C168.141 158.443 170.362 157.759 172.088 156.33C173.814 154.9 174.904 152.842 175.117 150.608C175.26 149.118 175.986 147.746 177.137 146.793C178.287 145.84 179.768 145.384 181.253 145.526ZM102.168 56.5273C103.094 46.8332 95.336 38.1347 84.8537 37.1337C77.0704 36.3904 69.9481 40.0857 66.4431 46.0195C64.1245 39.5296 57.8304 34.5529 50.0471 33.8096C39.5648 32.8086 30.3004 39.8814 29.3746 49.5756C27.5552 68.6269 61.5502 97.2537 61.5502 97.2537C61.5502 97.2537 100.349 75.5787 102.168 56.5273Z" fill="url(#paint1_linear_1830_571)"/>
<defs>
<linearGradient id="paint0_linear_1830_571" x1="149.867" y1="0.834052" x2="124.389" y2="267.62" gradientUnits="userSpaceOnUse">
<stop stop-color="#ADCBE0" stop-opacity="0.1"/>
<stop offset="1" stop-color="#ADCBE0" stop-opacity="0.5"/>
</linearGradient>
<linearGradient id="paint1_linear_1830_571" x1="149.867" y1="0.834052" x2="124.389" y2="267.62" gradientUnits="userSpaceOnUse">
<stop stop-color="#ADCBE0" stop-opacity="0.1"/>
<stop offset="1" stop-color="#ADCBE0" stop-opacity="0.5"/>
</linearGradient>
</defs>
</svg>
