<svg width="146" height="190" viewBox="0 0 146 190" fill="none" xmlns="http://www.w3.org/2000/svg">
<path d="M141.072 1.73371C139.885 0.962223 138.559 0.433324 137.171 0.177211C135.782 -0.0789028 134.357 -0.0572152 132.978 0.241036C131.599 0.539287 130.292 1.10826 129.133 1.91547C127.973 2.72267 126.983 3.7523 126.22 4.94557L118.951 16.3021L115.701 16.346C108.258 16.4543 101.123 19.3331 95.6742 24.4274L139.286 52.7754C141.644 45.6702 141.301 37.9314 138.325 31.053L137.026 28.0457L144.294 16.6866C145.834 14.2776 146.36 11.3496 145.755 8.54578C145.151 5.74201 143.467 3.29187 141.072 1.73371ZM85.8441 29.2934C84.6572 28.5219 83.3316 27.993 81.9428 27.7369C80.554 27.4808 79.1294 27.5024 77.7502 27.8007C76.371 28.0989 75.0643 28.6679 73.9047 29.4751C72.7451 30.2823 71.7553 31.312 70.9917 32.5052L69.1746 35.345C68.5006 36.3995 68.2706 37.6813 68.5351 38.9086C68.7996 40.1359 69.5369 41.2085 70.5852 41.8905L133.854 83.013C134.903 83.694 136.177 83.9285 137.395 83.665C138.614 83.4015 139.677 82.6616 140.352 81.6077L142.169 78.768C142.933 77.5747 143.455 76.2412 143.706 74.8436C143.958 73.446 143.933 72.0116 143.634 70.6223C143.334 69.2331 142.766 67.9162 141.962 66.7468C141.157 65.5775 140.132 64.5786 138.945 63.8071L85.8441 29.2934ZM68.3218 51.6746L63.6871 58.9213C58.0721 59.8077 52.7099 61.8815 47.9534 65.0064C43.1968 68.1313 39.1537 72.2363 36.09 77.0514L3.30104 128.29C0.319959 132.961 -0.696522 138.637 0.474555 144.071C1.64563 149.505 4.90865 154.255 9.54789 157.278L54.7373 186.65C59.3836 189.662 65.0229 190.699 70.4181 189.532C75.8132 188.366 80.5234 185.091 83.5153 180.426L116.301 129.185C119.389 124.386 121.432 118.981 122.294 113.325C123.156 107.669 122.819 101.89 121.303 96.3697L125.941 89.1251L68.3218 51.6746ZM37.5168 147.313C37.183 147.836 36.7501 148.286 36.2428 148.64C35.7354 148.993 35.1637 149.242 34.5602 149.373C33.9566 149.503 33.3332 149.513 32.7256 149.4C32.1179 149.288 31.5379 149.056 31.0187 148.719L21.9827 142.848C20.9339 142.166 20.1962 141.094 19.9316 139.866C19.6671 138.638 19.8975 137.357 20.5722 136.302C21.2468 135.248 22.3104 134.507 23.5291 134.244C24.7477 133.98 26.0215 134.215 27.0702 134.897L36.1074 140.773C36.6265 141.11 37.0747 141.547 37.4265 142.058C37.7782 142.569 38.0267 143.145 38.1575 143.752C38.2884 144.36 38.2992 144.987 38.1893 145.598C38.0793 146.209 37.8508 146.792 37.5168 147.313ZM52.2108 134.351C51.5357 135.405 50.4721 136.145 49.2536 136.408C48.0352 136.672 46.7616 136.437 45.7127 135.756L32.1572 126.944C31.1083 126.261 30.3706 125.188 30.1065 123.96C29.8424 122.732 30.0734 121.449 30.7487 120.395C31.4241 119.34 32.4884 118.6 33.7076 118.337C34.9269 118.074 36.2011 118.309 37.25 118.992L50.8055 127.804C51.3248 128.142 51.7731 128.579 52.1249 129.091C52.4766 129.603 52.7248 130.18 52.8553 130.788C52.9859 131.396 52.9961 132.023 52.8855 132.635C52.7749 133.246 52.5456 133.829 52.2108 134.351ZM57.8675 115.513C57.1925 116.567 56.1289 117.307 54.9104 117.57C53.692 117.834 52.4184 117.599 51.3695 116.918L42.3329 111.045C41.2845 110.363 40.547 109.291 40.2826 108.064C40.0182 106.837 40.2485 105.556 40.9229 104.502C41.5973 103.448 42.6605 102.708 43.8786 102.444C45.0967 102.181 46.37 102.416 47.4183 103.097L56.4576 108.97C57.5055 109.652 58.2427 110.724 58.5071 111.951C58.7715 113.178 58.5415 114.459 57.8675 115.513ZM72.5609 102.548C72.2271 103.07 71.7942 103.521 71.2869 103.875C70.7796 104.228 70.2078 104.477 69.6043 104.608C69.0008 104.738 68.3773 104.747 67.7697 104.635C67.162 104.523 66.582 104.291 66.0628 103.953L52.5053 95.1438C51.4563 94.4611 50.7187 93.3874 50.4548 92.159C50.1908 90.9305 50.4222 89.648 51.0979 88.5934C51.7736 87.5389 52.8383 86.7987 54.0578 86.5357C55.2773 86.2728 56.5518 86.5086 57.6007 87.1913L71.1583 96.0009C71.6772 96.339 72.1251 96.7766 72.4764 97.2886C72.8277 97.8007 73.0756 98.3771 73.2058 98.9851C73.3361 99.5931 73.3462 100.221 73.2355 100.832C73.1249 101.443 72.8956 102.027 72.5609 102.548Z" fill="url(#paint0_linear_1830_583)"/>
<defs>
<linearGradient id="paint0_linear_1830_583" x1="73" y1="0" x2="73" y2="190" gradientUnits="userSpaceOnUse">
<stop stop-color="#FF6600" stop-opacity="0.2"/>
<stop offset="1" stop-color="#FF6600" stop-opacity="0.3"/>
</linearGradient>
</defs>
</svg>
