<svg width="182" height="217" viewBox="0 0 182 217" fill="none" xmlns="http://www.w3.org/2000/svg">
<path d="M164.215 133.911C158.067 131.782 152.485 130.756 147.466 130.845C142.449 130.933 137.361 131.803 132.214 133.456C127.063 135.109 122.759 136.937 119.3 138.94C115.835 140.944 112.486 143.227 109.241 145.794C105.995 148.362 103.852 150.147 102.814 151.149C101.775 152.15 100.996 152.955 100.477 153.565C104.803 141.724 107.963 129.407 109.952 116.61L112.16 117.001C113.631 117.263 115.642 117.458 118.195 117.59C120.749 117.721 123.671 117.763 126.958 117.721C130.243 117.677 133.709 117.264 137.345 116.48C140.98 115.697 144.637 114.652 148.315 113.345C151.997 112.041 155.519 110.06 158.893 107.405C162.269 104.75 165.279 101.638 167.918 98.0684C170.557 94.4986 172.72 89.9506 174.407 84.4225C176.1 78.8966 177.03 72.7368 177.199 65.9463C171.316 63.9445 165.581 62.8998 159.998 62.8129C154.415 62.7247 149.569 63.3586 145.459 64.706C141.348 66.0534 137.392 67.9912 133.58 70.5159C129.774 73.0405 126.702 75.4572 124.362 77.7619C121.988 80.1124 119.798 82.6443 117.812 85.3349C115.778 88.0772 114.458 89.9474 113.853 90.949C113.246 91.9507 112.815 92.7552 112.554 93.3639C112.643 91.1009 112.685 87.9885 112.685 84.0277C112.685 80.0679 112.643 77.8689 112.554 77.4344L113.463 75.4755C114.158 74.1697 114.893 72.3407 115.672 69.9913C116.45 67.6404 117.273 64.9429 118.139 61.8964C119.004 58.849 119.566 55.5189 119.825 51.9057C120.087 48.2935 120.108 44.5719 119.891 40.7415C119.676 36.9106 118.789 33.0367 117.23 29.1199C115.672 25.203 113.595 21.502 111 18.021C108.404 14.5378 104.748 11.2082 100.03 8.03039C95.3116 4.85263 89.7944 2.17659 83.4765 0C79.0629 5.92011 76.0342 11.9486 74.39 18.0855C72.7454 24.222 72.2257 29.7501 72.8318 34.6686C73.4375 39.588 74.8647 44.4836 77.1145 49.3596C79.3648 54.2351 81.7001 58.2828 84.124 61.5035C86.5475 64.7247 89.2961 67.8362 92.3661 70.8401C95.4393 73.8436 97.5618 75.7797 98.7272 76.65C99.8953 77.5218 100.823 78.2165 101.519 78.7393C101.519 85.0939 100.999 93.5825 99.9576 104.202L99.441 102.113C99.0068 100.808 98.3143 99.0878 97.3622 96.956C96.4101 94.8243 95.2211 92.3865 93.7925 89.6446C92.3657 86.9023 90.5474 84.1595 88.3412 81.4171C86.1364 78.6748 83.713 76.0211 81.0726 73.4517C78.4345 70.884 75.2539 68.7074 71.5319 66.9233C67.8089 65.14 63.8295 63.8338 59.5877 63.0064C55.3459 62.1777 50.478 62.1365 44.9827 62.8751C39.4869 63.6156 33.711 65.204 27.6536 67.6418C28.1724 73.7352 29.4065 79.2853 31.353 84.2903C33.3004 89.2957 35.6584 93.4092 38.4275 96.6299C41.1956 99.8498 44.443 102.679 48.1637 105.116C51.8857 107.554 55.5196 109.403 59.068 110.666C62.6164 111.93 66.4453 112.931 70.5561 113.67C74.6674 114.41 78.193 114.845 81.1362 114.976C84.0794 115.107 87.0854 115.13 90.1582 115.042C93.2296 114.954 95.2429 114.847 96.1955 114.715C97.1494 114.584 97.9274 114.476 98.5344 114.388C96.2814 128.315 92.8626 140.984 88.2762 152.386C86.1123 148.553 83.6666 144.986 80.9403 141.676C78.214 138.37 74.3855 135.019 69.4521 131.624C64.517 128.227 59.1303 125.77 53.2889 124.246C47.4462 122.724 40.1998 122.396 31.5444 123.265C22.889 124.139 13.6302 126.62 3.76436 130.713C6.62116 137.937 9.84443 144.292 13.436 149.778C17.028 155.259 20.6828 159.615 24.4053 162.837C28.1274 166.058 32.1091 168.624 36.3495 170.542C40.5886 172.456 44.6144 173.696 48.4219 174.262C52.2299 174.827 56.1675 174.936 60.2352 174.588C64.3033 174.239 67.893 173.671 71.0099 172.89C74.185 172.087 77.3066 171.083 80.356 169.885C71.5273 186.252 60.6453 199.07 47.7067 208.339C34.7686 217.611 20.8129 222.292 5.84137 222.379C4.19676 222.379 2.81179 222.922 1.68734 224.013C0.562448 225.101 0 226.47 0 228.124C0 229.777 0.562448 231.168 1.68734 232.302C2.81179 233.432 4.19676 234 5.84137 234C23.8411 233.911 40.4804 228.148 55.7542 216.699C71.0294 205.25 83.557 189.603 93.3355 169.756L95.5435 171.06C96.9284 171.93 98.92 172.909 101.515 173.996C104.111 175.086 107.118 176.283 110.537 177.587C113.956 178.894 117.696 179.85 121.765 180.459C125.832 181.071 130.009 181.439 134.293 181.571C138.577 181.7 142.969 181.071 147.471 179.675C151.97 178.282 156.254 176.257 160.319 173.602C164.386 170.949 168.326 167.094 172.132 162.044C175.943 156.999 179.23 150.993 182 144.028C176.283 139.416 170.356 136.043 164.215 133.911Z" fill="url(#paint0_linear_1830_593)"/>
<defs>
<linearGradient id="paint0_linear_1830_593" x1="91" y1="0" x2="91" y2="234" gradientUnits="userSpaceOnUse">
<stop stop-color="#FF6600" stop-opacity="0.2"/>
<stop offset="1" stop-color="#FF6600" stop-opacity="0.3"/>
</linearGradient>
</defs>
</svg>
