<svg width="103" height="64" viewBox="0 0 103 64" fill="none" xmlns="http://www.w3.org/2000/svg">
<path fill-rule="evenodd" clip-rule="evenodd" d="M29.7979 0.543485L32.5192 1.35876L34.6962 2.44582L36.8732 3.80468L38.2338 5.02759L39.3224 5.97881L40.8191 7.88114L41.7715 9.2399L42.86 11.5499L43.6763 13.9958L44.0845 15.8981L44.2207 18.344L44.6288 18.6158L46.6698 18.8874L49.1189 19.5669L51.2959 20.6539L52.7926 21.6051L54.5615 23.0998L54.8335 23.6433H55.1057L56.4664 25.5457L57.6909 27.8557L58.3713 29.8938L58.7794 32.2038V34.7856L58.5073 36.8238L57.963 39.2697L57.0106 41.8514L55.9221 43.7537L54.6975 45.5202L53.609 46.879L52.1123 48.5096L51.8401 48.9172H51.5681L51.2959 49.4607L49.255 51.499L47.3501 53.1295L45.5812 54.6242L43.4042 56.2548L40.9551 58.0213L38.3699 59.6518L35.3764 61.4183L30.3421 64H29.3897L26.3963 62.6412L23.4029 61.0107L20.1374 59.1083L18.0964 57.7495L15.6473 55.983L13.4703 54.2166L11.9736 52.9937L10.2048 51.3631L8.43593 49.4607L7.21138 47.966L5.57864 45.792L4.49012 44.0255L2.99341 41.3079L1.90489 38.7261L1.08852 36.1444L0.408184 32.7474L0.13603 30.4374L0 27.0404L0.272154 23.2357L0.816368 20.1105L1.76886 16.8493L2.99341 14.1316L3.94581 12.3652L5.30649 10.1911L6.80319 8.42463L7.61956 7.47341H7.89171V7.20172H8.16377V6.92993L9.2523 5.97881L10.613 4.7558L12.926 3.2611L15.7833 1.76649L19.4571 0.543485L22.5865 0H26.6685L29.7979 0.543485ZM34.5601 10.1911L33.8798 11.1422L32.7913 12.6369L31.4306 13.8599L29.2537 15.3546L26.3963 16.7134L24.3554 17.2569L21.6341 17.8005L17.9604 18.2081L17.6882 18.4798L17.144 22.0128V25.138L17.28 25.5457H17.008L16.8719 24.4586L16.4637 22.2845L16.1915 18.6158L16.0555 17.8005L15.7833 17.2569L14.967 16.5775L13.7424 16.4416L13.4703 16.5775L12.6539 17.8005L12.3817 19.0234V20.1105L12.6539 21.3334L13.3342 22.8281L14.1506 24.1868L15.3751 25.2739L16.0555 25.9533V26.7686L15.7833 28.3991L15.2391 30.3015L14.1506 32.3398L13.1982 33.2909L11.9736 34.1062L7.61956 35.465L7.48353 35.8726H10.0687L10.749 36.0085L12.5179 36.5521L14.4228 37.639L16.1915 38.9979L18.0964 40.9002L19.0489 41.9873L21.2259 44.0255L22.9947 45.5202L25.1718 46.7431L26.9405 47.0149L28.3012 46.7431L29.1176 46.1996L29.6619 45.3843L29.7979 44.5691L29.5257 43.482L28.1652 41.0361L26.6685 39.4055L25.4439 37.775L24.7636 36.1444V34.3779H25.3078L26.2603 34.6497H28.1652L28.9815 34.3779L30.6143 33.4267L31.7028 32.6115L32.3831 31.9321L32.6552 31.3885H32.9273L33.6077 30.3015L34.0159 29.8938L34.1519 31.6603L34.5601 32.6115L35.6486 34.7856L36.0568 35.1932L36.6011 37.5032L37.1453 38.8621L37.8256 39.8132L39.0502 40.4926L39.8666 40.6284L39.5945 41.4437L39.7305 43.2102L39.8666 43.482L40.0027 45.3843H39.7305L39.4584 44.9767L38.9142 44.2973L38.506 42.6667L38.3699 41.4437L38.0978 40.4926L37.4175 40.6284L37.1453 41.172H36.8732L35.5126 39.6773L34.8322 39.8132L34.6962 41.0361L34.0159 40.6284L33.3355 40.4926L32.7913 41.5797L32.5192 42.2591L33.0634 43.3461L31.8388 43.2102L31.9749 43.8896L32.5192 44.4331L33.7437 45.792L35.2404 47.0149L36.1929 48.3737L37.5535 50.1401L38.2338 50.2761L39.3224 49.8684L41.6354 48.7814L44.4927 47.0149L46.2616 45.792V45.5202H46.5337L47.214 44.9767L47.4861 44.4331L48.0304 44.1614V43.482L47.6222 42.5308L47.214 40.6284V37.639L47.8943 34.9214L48.3025 31.6603L49.1189 31.7962V32.068L49.6632 33.0191L49.7992 34.2421L49.9353 36.2803L50.3435 36.8238L51.0238 36.9597L51.8402 36.0085L52.6566 34.5138L53.3368 32.4756V29.6221L53.2008 28.9427L52.3844 26.361L51.4319 24.7304L50.3435 23.3716L48.9828 22.2845L47.0779 21.3334L45.037 20.9257H43.6763L41.7715 21.1974L40.0027 21.741L37.9617 22.8281L36.6011 23.7792L37.1453 22.8281L37.6896 20.6539L37.5535 19.8387L36.7371 17.6645L35.9208 15.2187L35.2404 11.9575L34.8322 10.1911H34.5601Z" fill="white" fill-opacity="0.6"/>
<path d="M77.0119 28.9427H82.5905V30.3015L81.502 38.9979L80.4135 47.8302L80.1414 49.8684L79.5971 51.6348L78.6447 53.2654L77.5562 54.3525L76.1955 55.1678L74.5628 55.7113L73.7464 55.8472H71.5694L69.6645 55.5754L68.8481 55.3036V53.9448L68.9842 53.5372L69.2563 50.9554L69.6645 50.6837L71.4333 50.9554L73.0661 50.5478L73.8824 49.8684L74.4267 48.3737L74.971 44.9767L75.9234 36.8238L76.8758 29.4862L77.0119 28.9427Z" fill="white" fill-opacity="0.6"/>
<path fill-rule="evenodd" clip-rule="evenodd" d="M94.428 33.155L96.0608 33.8344L97.4215 34.7856L98.3739 35.7367L99.3263 37.2314L99.8706 38.7261L100.143 40.3568V42.6667L99.7345 44.8408L99.0542 46.6073L98.2378 48.102L97.0133 49.4607L96.0608 50.276L94.0199 51.0914L97.9657 52.0425L99.5984 52.3143H101.639L103 52.0425L102.728 52.5861L101.775 53.673L100.551 54.6242L98.646 55.5754L97.0133 55.983L94.8362 56.1189L92.6592 55.7113L89.8019 54.7601L86.1281 53.1295L83.679 51.7707L82.1823 50.5478L81.2299 49.5967L81.0938 49.189L81.2299 46.879L82.4544 37.0956L82.8627 36.2803L83.5429 35.6009L84.9036 34.5138L87.0806 33.4267L88.8494 32.8832L89.8019 32.7474H92.5232L94.428 33.155ZM90.2101 37.3673L89.5297 37.5032L88.1691 38.0467L86.9445 39.1337L85.9921 40.9002L85.4478 42.9384V44.8408L85.856 46.0637L86.6725 47.2867L87.3527 47.8302L88.5772 48.2378H90.074L91.1625 47.966L91.8428 47.5584L93.0674 46.3355L93.8837 45.1126L94.428 42.9384V40.9002L94.1559 39.8132L93.3395 38.4544L92.387 37.775L91.1625 37.3673H90.2101Z" fill="white" fill-opacity="0.6"/>
<path fill-rule="evenodd" clip-rule="evenodd" d="M72.7939 29.0786L74.8349 35.8726L74.971 36.4161V39.2697L74.1546 45.656L73.8824 47.5584L73.7464 47.6943H72.1136L71.7054 46.7431L71.0251 44.2973L70.889 44.0255H64.222L63.6776 44.9767L62.5892 47.1507L62.181 47.6943H57.4188L56.1942 47.5584L56.4664 46.7431L57.6909 44.5691L59.4597 41.172L61.0925 38.1826L62.7252 35.0574L64.358 32.068L66.2629 28.3991L66.535 27.9915H72.3857L72.7939 29.0786ZM68.7121 33.6985L67.7596 35.8726L66.2629 39.1337L65.8547 40.3568H70.0727V39.4055L69.2563 35.465L68.9841 33.6985H68.7121Z" fill="white" fill-opacity="0.6"/>
</svg>
