<svg width="86" height="54" viewBox="0 0 86 54" fill="none" xmlns="http://www.w3.org/2000/svg">
<path fill-rule="evenodd" clip-rule="evenodd" d="M24.8798 0.458566L27.1519 1.14645L28.9696 2.06366L30.7873 3.2102L31.9234 4.24203L32.8323 5.04462L34.0819 6.64972L34.8771 7.79617L35.786 9.74521L36.4676 11.809L36.8084 13.4141L36.9221 15.4777L37.2629 15.707L38.967 15.9363L41.0119 16.5095L42.8296 17.4268L44.0793 18.2293L45.5562 19.4904L45.7833 19.9491H46.0106L47.1467 21.5542L48.1691 23.5032L48.7372 25.2229L49.078 27.172V29.3503L48.8507 31.0701L48.3963 33.1338L47.6011 35.3121L46.6922 36.9172L45.6698 38.4077L44.7609 39.5542L43.5112 40.93L43.284 41.2739H43.0568L42.8296 41.7325L41.1255 43.4523L39.535 44.8281L38.0581 46.0892L36.2404 47.465L34.1955 48.9555L32.037 50.3312L29.5376 51.8217L25.3342 54H24.539L22.0396 52.8535L19.5403 51.4778L16.8138 49.8727L15.1096 48.7261L13.0647 47.2357L11.247 45.7453L9.99734 44.7134L8.5205 43.3376L7.04359 41.7325L6.02115 40.4713L4.65789 38.637L3.74903 37.1465L2.49935 34.8535L1.59049 32.6752L0.908863 30.4969L0.340814 27.6306L0.113579 25.6816L0 22.8153L0.227235 19.6051L0.681628 16.9682L1.47691 14.2166L2.49935 11.9236L3.29456 10.4331L4.43066 8.59876L5.68033 7.10828L6.36196 6.30569H6.5892V6.07645H6.81635V5.84713L7.72522 5.04462L8.86132 4.01271L10.7926 2.75155L13.1783 1.49048L16.2457 0.458566L18.8587 0H22.2669L24.8798 0.458566ZM28.856 8.59876L28.288 9.40127L27.3792 10.6624L26.2431 11.6943L24.4254 12.9554L22.0396 14.1019L20.3356 14.5605L18.0634 15.0192L14.996 15.3631L14.7688 15.5923L14.3144 18.5733V21.2102L14.428 21.5542H14.2008L14.0872 20.637L13.7464 18.8025L13.5191 15.707L13.4056 15.0192L13.1783 14.5605L12.4967 13.9872L11.4742 13.8726L11.247 13.9872L10.5654 15.0192L10.3382 16.051V16.9682L10.5654 18L11.1334 19.2612L11.8151 20.4076L12.8375 21.3248L13.4056 21.8981V22.586L13.1783 23.9618L12.7239 25.5669L11.8151 27.2867L11.0199 28.0892L9.99734 28.7771L6.36196 29.9236L6.24838 30.2675H8.40685L8.97489 30.3822L10.4518 30.8408L12.0423 31.7579L13.5191 32.9045L15.1096 34.5096L15.9049 35.4268L17.7226 37.1465L19.1995 38.4077L21.0172 39.4395L22.494 39.6688L23.6301 39.4395L24.3118 38.9809L24.7662 38.293L24.8798 37.6052L24.6526 36.6879L23.5165 34.6242L22.2669 33.2484L21.2444 31.8726L20.6764 30.4969V29.0064H21.1308L21.9261 29.2357H23.5165L24.1982 29.0064L25.5614 28.2038L26.4703 27.5159L27.0383 26.9427L27.2655 26.4841H27.4927L28.0608 25.5669L28.4016 25.2229L28.5152 26.7134L28.856 27.5159L29.7649 29.3503L30.1057 29.6943L30.5601 31.6433L31.0145 32.7899L31.5826 33.5924L32.605 34.1656L33.2866 34.2803L33.0595 34.9681L33.1731 36.4586L33.2866 36.6879L33.4003 38.293H33.1731L32.9458 37.9491L32.4914 37.3758L32.1506 36L32.037 34.9681L31.8098 34.1656L31.2418 34.2803L31.0145 34.7389H30.7873L29.6513 33.4777L29.0832 33.5924L28.9696 34.6242L28.4016 34.2803L27.8335 34.1656L27.3792 35.0828L27.1519 35.6561L27.6063 36.5732L26.5839 36.4586L26.6975 37.0319L27.1519 37.4904L28.1744 38.637L29.424 39.6688L30.2193 40.8153L31.3553 42.3057L31.9234 42.4204L32.8323 42.0764L34.7636 41.1593L37.1493 39.6688L38.6262 38.637V38.4077H38.8534L39.4214 37.9491L39.6486 37.4904L40.1031 37.2612V36.6879L39.7623 35.8853L39.4214 34.2803V31.7579L39.9894 29.465L40.3302 26.7134L41.0119 26.828V27.0574L41.4663 27.8599L41.5799 28.8918L41.6936 30.6115L42.0344 31.0701L42.6024 31.1848L43.2841 30.3822L43.9657 29.121L44.5337 27.4013V24.9936L44.4201 24.4204L43.7385 22.2421L42.9432 20.8663L42.0344 19.7197L40.8983 18.8025L39.3078 18L37.6037 17.6561H36.4676L34.8771 17.8853L33.4003 18.344L31.6962 19.2612L30.5601 20.0637L31.0145 19.2612L31.469 17.4268L31.3553 16.7389L30.6737 14.9045L29.9921 12.8408L29.424 10.0892L29.0832 8.59876H28.856Z" fill="#EA473B"/>
<path d="M64.3012 24.4204H68.9591V25.5669L68.0502 32.9045L67.1414 40.3567L66.9141 42.0765L66.4597 43.5669L65.6645 44.9427L64.7556 45.8599L63.6196 46.5478L62.2563 47.0064L61.5746 47.121H59.7569L58.1665 46.8917L57.4848 46.6624V45.5159L57.5984 45.172L57.8256 42.9937L58.1665 42.7644L59.6433 42.9937L61.0066 42.6497L61.6883 42.0765L62.1427 40.8153L62.5971 37.9491L63.3923 31.0701L64.1876 24.879L64.3012 24.4204Z" fill="#EA473B"/>
<path fill-rule="evenodd" clip-rule="evenodd" d="M78.8428 27.9746L80.2061 28.5477L81.3422 29.3503L82.1374 30.1528L82.9327 31.414L83.3871 32.6752L83.6143 34.051V36.0001L83.2735 37.8344L82.7054 39.3249L82.0238 40.586L81.0014 41.7325L80.2061 42.4204L78.502 43.1083L81.7966 43.9108L83.1598 44.1402H84.864L86 43.9108L85.7728 44.3695L84.9776 45.2866L83.9551 46.0892L82.3646 46.8917L81.0014 47.2357L79.1836 47.3504L77.3659 47.0064L74.9802 46.2038L71.9128 44.8281L69.8679 43.6815L68.6183 42.6497L67.823 41.8472L67.7094 41.5032L67.823 39.5542L68.8454 31.2994L69.1863 30.6115L69.7543 30.0382L70.8904 29.121L72.7081 28.2038L74.1849 27.7452L74.9802 27.6306H77.2523L78.8428 27.9746ZM75.321 31.5287L74.753 31.6433L73.6169 32.1019L72.5944 33.0191L71.7992 34.5096L71.3448 36.2293V37.8344L71.6856 38.8662L72.3673 39.8981L72.9353 40.3567L73.9577 40.7006H75.2074L76.1162 40.4713L76.6843 40.1274L77.7067 39.0956L78.3884 38.0637L78.8428 36.2293V34.5096L78.6156 33.5924L77.934 32.4459L77.1387 31.8726L76.1162 31.5287H75.321Z" fill="#0B0404"/>
<path fill-rule="evenodd" clip-rule="evenodd" d="M60.7794 24.535L62.4835 30.2675L62.5971 30.7261V33.1338L61.9155 38.5223L61.6882 40.1274L61.5747 40.2421H60.2113L59.8705 39.4395L59.3025 37.3758L59.1889 37.1465H53.6222L53.1677 37.9491L52.259 39.7834L51.9181 40.2421H47.9419L46.9194 40.1274L47.1467 39.4395L48.1691 37.6051L49.6459 34.7389L51.0093 32.2166L52.3725 29.5797L53.7358 27.0574L55.3263 23.9618L55.5535 23.6178H60.4386L60.7794 24.535ZM57.3712 28.4331L56.576 30.2675L55.3263 33.0191L54.9855 34.051H58.5073V33.2484L57.8256 29.9236L57.5984 28.4331H57.3712Z" fill="#0C0404"/>
</svg>
