<svg width="68" height="64" viewBox="0 0 68 64" fill="none" xmlns="http://www.w3.org/2000/svg">
<path d="M30.834 2.38391C31.4695 2.38391 32.1004 2.40353 32.7264 2.4414C18.5534 3.35658 7.34143 15.1321 7.34143 29.5243C7.34143 44.5136 19.5029 56.6647 34.5047 56.6647C48.9092 56.6647 60.6944 45.4621 61.6103 31.301C61.6482 31.9265 61.668 32.557 61.668 33.192C61.668 50.2068 47.8632 64 30.834 64C13.8049 64 0 50.2068 0 33.192C0 16.1771 13.8049 2.38391 30.834 2.38391Z" fill="white" fill-opacity="0.6"/>
<path d="M26.7962 14.0014C31.303 14.4434 35.7437 16.058 39.4602 18.4815V25.3066H46.4261C48.8391 29.0531 49.8026 33.4259 48.4737 37.9599H39.4602V49.6896C39.0532 49.9987 38.6315 50.3065 38.1953 50.6132H26.7962V37.9599H14.1323V25.3066H26.7962V14.0014Z" fill="white" fill-opacity="0.6"/>
<path d="M51.5736 7.24351C51.5736 9.9274 49.396 12.1031 46.7099 12.1031C44.0237 12.1031 41.8462 9.9274 41.8462 7.24351C41.8462 4.55963 44.0237 2.38391 46.7099 2.38391C49.396 2.38391 51.5736 4.55963 51.5736 7.24351Z" fill="white" fill-opacity="0.6"/>
<path d="M51.1147 16.6877C54.3266 7.51862 60.7503 1.28362 68 0C55.8866 8.80225 55.6172 19.3327 55.8866 26.4985C56.259 36.4023 52.2159 48.6877 37.3495 52.172C66.1646 33.467 40.1026 9.44409 19.7301 13.4785C34.5047 7.15187 47.3522 14.4871 51.1147 16.6877Z" fill="white" fill-opacity="0.6"/>
</svg>
