<svg width="164" height="164" viewBox="0 0 164 164" fill="none" xmlns="http://www.w3.org/2000/svg">
<path fill-rule="evenodd" clip-rule="evenodd" d="M4.61705e-07 22.3808C4.61705e-07 16.445 2.35616 10.7524 6.55016 6.55517C10.7442 2.35797 16.4324 0 22.3636 0H27.9545C29.9316 0 31.8277 0.785988 33.2257 2.18506C34.6237 3.58413 35.4091 5.48167 35.4091 7.46025C35.4091 9.43883 34.6237 11.3364 33.2257 12.7354C31.8277 14.1345 29.9316 14.9205 27.9545 14.9205H22.3636C20.3866 14.9205 18.4905 15.7065 17.0925 17.1056C15.6945 18.5046 14.9091 20.4022 14.9091 22.3808V59.682C14.9091 69.5749 18.836 79.0626 25.826 86.058C32.816 93.0533 42.2965 96.9833 52.1818 96.9833C62.0672 96.9833 71.5476 93.0533 78.5376 86.058C85.5276 79.0626 89.4545 69.5749 89.4545 59.682V22.3808C89.4545 20.4022 88.6692 18.5046 87.2712 17.1056C85.8732 15.7065 83.9771 14.9205 82 14.9205H76.4091C74.432 14.9205 72.5359 14.1345 71.1379 12.7354C69.7399 11.3364 68.9545 9.43883 68.9545 7.46025C68.9545 5.48167 69.7399 3.58413 71.1379 2.18506C72.5359 0.785988 74.432 0 76.4091 0H82C87.9312 0 93.6195 2.35797 97.8135 6.55517C102.007 10.7524 104.364 16.445 104.364 22.3808V59.682C104.365 72.2414 99.8447 84.3809 91.6301 93.8759C83.4156 103.371 72.0572 109.586 59.6364 111.382V111.904C59.6359 121.257 63.1462 130.268 69.4719 137.153C75.7975 144.038 84.4767 148.293 93.7896 149.076C103.103 149.859 112.369 147.112 119.754 141.38C127.138 135.647 132.102 127.348 133.66 118.126C133.988 116.174 135.078 114.432 136.689 113.284C138.3 112.136 140.301 111.676 142.251 112.004C144.202 112.333 145.942 113.423 147.089 115.036C148.236 116.648 148.696 118.651 148.368 120.602C146.157 133.488 139.199 145.075 128.867 153.076C118.534 161.077 105.58 164.91 92.5616 163.817C79.5432 162.725 67.4076 156.786 58.5514 147.175C49.6952 137.563 44.7624 124.978 44.7273 111.904V111.382C32.3064 109.586 20.9481 103.371 12.7335 93.8759C4.51895 84.3809 -0.00166805 72.2414 4.61705e-07 59.682V22.3808ZM141.636 96.9833C144.573 96.9833 147.481 96.4044 150.195 95.2796C152.908 94.1549 155.373 92.5063 157.45 90.4281C159.526 88.3499 161.174 85.8826 162.298 83.1673C163.422 80.4519 164 77.5416 164 74.6025C164 71.6634 163.422 68.7531 162.298 66.0378C161.174 63.3224 159.526 60.8552 157.45 58.7769C155.373 56.6987 152.908 55.0501 150.195 53.9254C147.481 52.8007 144.573 52.2218 141.636 52.2218C135.705 52.2218 130.017 54.5797 125.823 58.7769C121.629 62.9741 119.273 68.6668 119.273 74.6025C119.273 80.5383 121.629 86.2309 125.823 90.4281C130.017 94.6253 135.705 96.9833 141.636 96.9833Z" fill="url(#paint0_linear_1685_4949)"/>
<defs>
<linearGradient id="paint0_linear_1685_4949" x1="82" y1="0" x2="82" y2="164" gradientUnits="userSpaceOnUse">
<stop stop-color="#EA473B" stop-opacity="0.2"/>
<stop offset="1" stop-color="#EA473B" stop-opacity="0.3"/>
</linearGradient>
</defs>
</svg>
