<svg width="22" height="28" viewBox="0 0 22 28" fill="none" xmlns="http://www.w3.org/2000/svg">
<path d="M11 13.9998C11.7333 13.9998 12.3613 13.7389 12.884 13.2172C13.4067 12.6954 13.6676 12.0674 13.6667 11.3332C13.6658 10.5989 13.4049 9.97139 12.884 9.4505C12.3631 8.92962 11.7351 8.66828 11 8.6665C10.2649 8.66473 9.63733 8.92606 9.11733 9.4505C8.59733 9.97495 8.336 10.6025 8.33333 11.3332C8.33067 12.0638 8.592 12.6918 9.11733 13.2172C9.64267 13.7425 10.2702 14.0034 11 13.9998ZM11 23.7998C13.7111 21.3109 15.7222 19.0501 17.0333 17.0172C18.3444 14.9843 19 13.1785 19 11.5998C19 9.17761 18.228 7.1945 16.684 5.6505C15.14 4.1065 13.2453 3.33406 11 3.33317C8.75467 3.33228 6.86044 4.10473 5.31733 5.6505C3.77422 7.19628 3.00178 9.17939 3 11.5998C3 13.1776 3.65555 14.9834 4.96667 17.0172C6.27778 19.0509 8.28889 21.3118 11 23.7998ZM11 27.3332C7.42222 24.2887 4.75022 21.4612 2.984 18.8505C1.21778 16.2398 0.334221 13.8229 0.333332 11.5998C0.333332 8.2665 1.40578 5.61095 3.55067 3.63317C5.69555 1.65539 8.17867 0.666504 11 0.666504C13.8213 0.666504 16.3049 1.65539 18.4507 3.63317C20.5964 5.61095 21.6684 8.2665 21.6667 11.5998C21.6667 13.8221 20.7836 16.2389 19.0173 18.8505C17.2511 21.4621 14.5787 24.2896 11 27.3332Z" fill="white" fill-opacity="0.6"/>
</svg>
