<svg width="272" height="272" viewBox="0 0 272 272" fill="none" xmlns="http://www.w3.org/2000/svg">
<path d="M270.051 162.122L252.871 142.318C265.254 126.827 272 107.676 272 87.6562C272 39.3226 232.678 0 184.344 0C136.01 0 96.6875 39.3226 96.6875 87.6562C96.6875 135.99 136.01 175.312 184.344 175.312H264.031C265.559 175.312 267.055 174.873 268.34 174.047C269.626 173.221 270.646 172.042 271.281 170.652C271.915 169.262 272.137 167.719 271.918 166.206C271.7 164.694 271.052 163.276 270.051 162.122ZM184.344 141.844C179.943 141.844 176.375 138.276 176.375 133.875C176.375 129.474 179.943 125.906 184.344 125.906C188.745 125.906 192.312 129.474 192.312 133.875C192.312 138.276 188.745 141.844 184.344 141.844ZM206.514 84.5543C202.632 88.6438 197.685 91.5556 192.313 93.0144V109.749C192.313 114.15 188.745 117.718 184.344 117.718C179.943 117.718 176.376 114.15 176.376 109.749V86.113C176.376 81.7121 179.943 78.1442 184.344 78.1442C188.394 78.1442 192.163 76.5234 194.957 73.5808C197.748 70.6408 199.169 66.784 198.958 62.7204C198.564 55.1124 192.278 49.0317 184.65 48.8782C184.55 48.8761 184.451 48.875 184.351 48.875C177.065 48.875 170.859 54.2358 169.851 61.4587C169.757 62.1383 169.71 62.8237 169.71 63.5099C169.71 67.9107 166.142 71.4786 161.741 71.4786C157.34 71.4786 153.772 67.9107 153.772 63.5099C153.772 62.0872 153.872 60.6565 154.067 59.2561C156.203 43.9439 169.507 32.6267 184.971 32.9439C200.913 33.2653 214.049 45.9818 214.875 61.8943C215.314 70.3656 212.345 78.4136 206.514 84.5543Z" fill="url(#paint0_linear_1694_5036)" fill-opacity="0.9"/>
<path d="M114.219 176.375H61.0938C56.6929 176.375 53.125 172.807 53.125 168.406C53.125 164.005 56.6929 160.438 61.0938 160.438H110.709C94.2432 143.78 83.367 121.585 81.1697 96.9277C35.8535 100.259 2.35662e-05 138.192 2.35662e-05 184.344C2.35662e-05 204.363 6.74637 223.514 19.1287 239.005L1.94918 258.81C0.947926 259.964 0.299639 261.382 0.0815721 262.894C-0.136495 264.406 0.0848531 265.95 0.71924 267.34C1.35363 268.73 2.3743 269.908 3.65963 270.734C4.94497 271.561 6.44076 272 7.96877 272H87.6563C133.809 272 171.741 236.146 175.072 190.83C155.24 189.063 137.002 181.678 121.954 170.29C121.107 173.78 117.97 176.375 114.219 176.375ZM114.219 208.25H61.0938C56.6929 208.25 53.125 204.682 53.125 200.281C53.125 195.88 56.6929 192.313 61.0938 192.313H114.219C118.62 192.313 122.188 195.88 122.188 200.281C122.188 204.682 118.62 208.25 114.219 208.25Z" fill="url(#paint1_linear_1694_5036)" fill-opacity="0.9"/>
<defs>
<linearGradient id="paint0_linear_1694_5036" x1="136" y1="0" x2="136" y2="272" gradientUnits="userSpaceOnUse">
<stop stop-color="#ADCBE0" stop-opacity="0.2"/>
<stop offset="1" stop-color="#ADCBE0" stop-opacity="0.5"/>
</linearGradient>
<linearGradient id="paint1_linear_1694_5036" x1="136" y1="0" x2="136" y2="272" gradientUnits="userSpaceOnUse">
<stop stop-color="#ADCBE0" stop-opacity="0.2"/>
<stop offset="1" stop-color="#ADCBE0" stop-opacity="0.5"/>
</linearGradient>
</defs>
</svg>
