<svg width="96" height="128" viewBox="0 0 96 128" fill="none" xmlns="http://www.w3.org/2000/svg">
<path d="M94.9695 1.32C94.5948 0.90435 94.137 0.572059 93.6257 0.344664C93.1145 0.117269 92.5611 -0.000155717 92.0015 1.54977e-07H4.00303C2.87505 1.54977e-07 1.79507 0.48 1.03508 1.32C0.660616 1.73435 0.376818 2.22234 0.201865 2.75272C0.026912 3.2831 -0.0353402 3.84417 0.0190986 4.4L12.0189 124.4C12.1184 125.387 12.5811 126.302 13.3173 126.968C14.0535 127.633 15.0106 128.001 16.0028 128H80.0017C82.0577 128 83.7777 126.448 83.9777 124.4L95.9774 4.4C96.0371 3.84451 95.9781 3.28269 95.8043 2.75172C95.6306 2.22074 95.346 1.73274 94.9695 1.32ZM84.3217 40.624C74.1538 43.912 60.922 45.432 50.5382 36.912C37.5225 26.232 21.5707 28.072 10.7549 31.288L8.42696 8H87.5776L84.3217 40.624Z" fill="url(#paint0_linear_1685_4960)"/>
<defs>
<linearGradient id="paint0_linear_1685_4960" x1="48" y1="0" x2="48" y2="128" gradientUnits="userSpaceOnUse">
<stop stop-color="#EA473B" stop-opacity="0.2"/>
<stop offset="1" stop-color="#EA473B" stop-opacity="0.3"/>
</linearGradient>
</defs>
</svg>
