<svg width="579" height="566" viewBox="0 0 579 566" fill="none" xmlns="http://www.w3.org/2000/svg">
<path fill-rule="evenodd" clip-rule="evenodd" d="M293.521 5.37584L320.326 13.4392L341.771 24.1908L363.216 37.6309L376.618 49.7259L387.341 59.1334L402.083 77.9493L411.465 91.3885L422.188 114.236L430.229 138.427L434.25 157.242L435.59 181.433L439.612 184.121L459.716 186.809L483.841 193.529L505.285 204.28L520.028 213.688L537.451 228.471L540.132 233.847H542.812L556.216 252.662L568.278 275.51L574.979 295.669L579 318.515V344.05L576.32 364.21L570.959 388.401L561.577 413.936L550.855 432.751L538.792 450.222L528.069 463.662L513.326 479.79L510.646 483.821H507.965L505.285 489.197L485.181 509.357L466.417 525.484L448.993 540.267L427.549 556.395L403.424 573.866L377.959 589.993L348.473 607.465L298.882 633H289.5L260.014 619.56L230.528 603.432L198.361 584.617L178.257 571.178L154.132 553.707L132.688 536.236L117.945 524.14L100.521 508.012L83.0975 489.197L71.0347 474.414L54.9512 452.911L44.2298 435.439L29.4859 408.561L18.7645 383.026L10.7223 357.49L4.02155 323.891L1.34052 301.045L0 267.445L2.68103 229.815L8.04219 198.904L17.424 166.649L29.4859 139.771L38.8686 122.299L52.2711 100.796L67.0141 83.3251L75.0563 73.9167H77.7364V71.2293H80.4165V68.5418L91.1388 59.1334L104.542 47.0384L127.326 32.2551L155.473 17.4717L191.66 5.37584L222.486 0H262.695L293.521 5.37584ZM340.431 100.796L333.73 110.203L323.008 124.987L309.604 137.083L288.16 151.866L260.014 165.305L239.91 170.681L213.104 176.057L176.917 180.089L174.236 182.777L168.875 217.719V248.63L170.216 252.662H167.535L166.195 241.91L162.174 220.408L159.493 184.121L158.153 176.057L155.473 170.681L147.431 163.962L135.369 162.618L132.688 163.962L124.646 176.057L121.965 188.153V198.904L124.646 210.999L131.347 225.784L139.389 239.223L151.451 249.975L158.153 256.694V264.758L155.473 280.885L150.112 299.7L139.389 319.86L130.007 329.267L117.945 337.331L75.0563 350.77L73.7157 354.802H99.181L105.882 356.146L123.306 361.522L142.069 372.274L159.493 385.713L178.257 404.528L187.639 415.28L209.083 435.439L226.507 450.222L247.951 462.318L265.375 465.006L278.778 462.318L286.82 456.942L292.181 448.879L293.521 440.815L290.841 430.063L277.438 405.872L262.695 389.745L250.632 373.617L243.931 357.49V340.019H249.292L258.674 342.707H277.438L285.479 340.019L301.563 330.611L312.285 322.548L318.986 315.828L321.667 310.452H324.347L331.049 299.7L335.069 295.669L336.41 313.14L340.431 322.548L351.153 344.05L355.174 348.083L360.535 370.93L365.896 384.369L372.598 393.777L384.659 400.496L392.702 401.841L390.021 409.904L391.361 427.376L392.702 430.063L394.042 448.879H391.361L388.681 444.846L383.32 438.127L379.299 422L377.959 409.904L375.278 400.496L368.577 401.841L365.896 407.216H363.216L349.812 392.433L343.112 393.777L341.771 405.872L335.069 401.841L328.369 400.496L323.008 411.248L320.326 417.968L325.688 428.72L313.626 427.376L314.965 434.096L320.326 439.471L332.389 452.911L347.132 465.006L356.514 478.446L369.917 495.916L376.618 497.261L387.341 493.229L410.125 482.477L438.271 465.006L455.694 452.911V450.222H458.375L465.077 444.846L467.757 439.471L473.118 436.783V430.063L469.098 420.656L465.077 401.841V372.274L471.778 345.395L475.799 313.14L483.841 314.484V317.172L489.202 326.58L490.542 338.675L491.882 358.834L495.903 364.21L502.604 365.554L510.646 356.146L518.688 341.363L525.389 321.204V292.98L524.049 286.261L516.008 260.726L506.625 244.599L495.903 231.16L482.5 220.408L463.736 210.999L443.632 206.968H430.23L411.465 209.656L394.042 215.032L373.938 225.784L360.535 235.191L365.896 225.784L371.257 204.28L369.917 196.216L361.875 174.714L353.834 150.522L347.132 118.268L343.112 100.796H340.431Z" fill="#EA473B"/>
</svg>
