<svg width="458" height="409" viewBox="0 0 458 409" fill="none" xmlns="http://www.w3.org/2000/svg">
<g style="mix-blend-mode:color-burn">
<path fill-rule="evenodd" clip-rule="evenodd" d="M232.18 4.26331L253.384 10.6579L270.347 19.1845L287.311 29.8432L297.912 39.4351L306.394 46.8957L318.056 61.8176L325.477 72.4755L333.958 90.5947L340.319 109.779L343.5 124.7L344.56 143.885L347.741 146.017L363.644 148.148L382.727 153.478L399.69 162.004L411.352 169.465L425.134 181.189L427.255 185.452H429.375L439.977 200.373L449.518 218.493L454.82 234.48L458 252.598V272.849L455.88 288.836L451.639 308.021L444.218 328.272L435.736 343.193L426.195 357.048L417.713 367.707L406.051 380.497L403.931 383.694H401.81L399.69 387.957L383.787 403.945L368.944 416.735L355.162 428.458L338.199 441.248L319.116 455.104L298.973 467.894L275.649 481.749L236.421 502H229L205.676 491.341L182.352 478.551L156.907 463.63L141.005 452.972L121.922 439.116L104.958 425.261L93.2965 415.669L79.5137 402.879L65.7317 387.957L56.1898 376.233L43.4675 359.18L34.9866 345.324L23.3239 324.009L14.8431 303.758L8.48156 283.507L3.18112 256.862L1.06037 238.743L0 212.097L2.12075 182.255L6.36153 157.741L13.7827 132.161L23.3239 110.845L30.7458 96.9893L41.3474 79.9361L53.0094 66.0809L59.3709 58.6196H61.491V56.4883H63.611V54.357L72.0926 46.8957L82.6949 37.3038L100.718 25.5798L122.982 13.8559L151.607 4.26331L175.991 0H207.797L232.18 4.26331ZM269.287 79.9361L263.987 87.3967L255.505 99.1207L244.903 108.713L227.94 120.437L205.676 131.095L189.773 135.358L168.569 139.622L139.944 142.82L137.824 144.951L133.584 172.662V197.176L134.644 200.373H132.523L131.463 191.847L128.282 174.794L126.162 146.017L125.102 139.622L122.982 135.358L116.62 130.03L107.079 128.964L104.958 130.03L98.5976 139.622L96.4769 149.214V157.741L98.5976 167.333L103.898 179.057L110.26 189.715L119.801 198.242L125.102 203.571V209.966L122.982 222.756L118.741 237.677L110.26 253.664L102.838 261.125L93.2965 267.52L59.3709 278.178L58.3106 281.375H78.4541L83.7545 282.441L97.5372 286.705L112.38 295.231L126.162 305.889L141.005 320.81L148.426 329.337L165.389 345.324L179.172 357.048L196.134 366.641L209.917 368.773L220.518 366.641L226.88 362.378L231.121 355.983L232.18 349.588L230.06 341.061L219.459 321.876L207.797 309.087L198.255 296.297L192.954 283.507V269.652H197.195L204.616 271.784H219.459L225.82 269.652L238.542 262.191L247.023 255.796L252.324 250.467L254.445 246.204H256.565L261.866 237.677L265.046 234.48L266.107 248.335L269.287 255.796L277.769 272.849L280.949 276.047L285.19 294.165L289.431 304.823L294.732 312.285L304.273 317.613L310.634 318.679L308.514 325.074L309.574 338.93L310.634 341.061L311.695 355.983H309.574L307.454 352.785L303.213 347.456L300.033 334.666L298.973 325.074L296.852 317.613L291.551 318.679L289.431 322.943H287.311L276.708 311.219L271.408 312.285L270.347 321.876L265.046 318.679L259.746 317.613L255.505 326.14L253.384 331.469L257.625 339.996L248.084 338.93L249.144 344.259L253.384 348.522L262.926 359.18L274.588 368.773L282.009 379.431L292.611 393.286L297.912 394.352L306.394 391.155L324.417 382.628L346.681 368.773L360.463 359.18V357.048H362.584L367.885 352.785L370.005 348.522L374.245 346.39V341.061L371.065 333.6L367.885 318.679V295.231L373.185 273.915L376.366 248.335L382.727 249.401V251.533L386.968 258.994L388.028 268.586L389.088 284.573L392.269 288.836L397.569 289.902L403.931 282.441L410.292 270.718L415.593 254.73V232.348L414.533 227.019L408.172 206.769L400.75 193.979L392.269 183.321L381.667 174.794L366.824 167.333L350.922 164.136H340.32L325.477 166.268L311.695 170.531L295.792 179.057L285.19 186.518L289.431 179.057L293.671 162.004L292.611 155.609L286.25 138.556L279.889 119.371L274.588 93.7921L271.408 79.9361H269.287Z" fill="#EA473B" fill-opacity="0.2"/>
</g>
</svg>
