<svg width="273" height="246" viewBox="0 0 273 246" fill="none" xmlns="http://www.w3.org/2000/svg">
<path d="M192.31 20.175C178.862 6.725 161.379 0 145.241 0C129.103 0 110.276 6.725 98.1724 20.175L20.1724 95.495C-6.72414 122.395 -6.72414 164.09 20.1724 190.99C47.069 217.89 88.7586 217.89 115.655 190.99L192.31 114.325C217.862 88.77 217.862 45.73 192.31 20.175ZM173.483 95.495L135.828 133.155L87.4138 86.08L28.2414 145.26C28.2414 134.5 30.931 122.395 40.3448 114.325L117 37.66C123.724 30.935 134.483 26.9 143.897 26.9C153.31 26.9 164.069 30.935 172.138 37.66C188.276 55.145 188.276 79.355 173.483 95.495ZM238.034 68.595C238.034 79.355 235.345 88.77 232.655 99.53C246.103 115.67 246.103 139.88 231.31 154.675L193.655 192.335L173.483 172.16L135.828 209.82C118.345 227.305 94.1379 236.72 71.2759 236.72C73.9655 240.755 76.6552 244.79 80.6897 248.825C107.586 275.725 149.276 275.725 176.172 248.825L252.828 172.16C279.724 145.26 279.724 103.565 252.828 76.665C246.103 73.975 242.069 71.285 238.034 68.595Z" fill="url(#paint0_linear_1684_4930)"/>
<defs>
<linearGradient id="paint0_linear_1684_4930" x1="136.5" y1="0" x2="136.5" y2="269" gradientUnits="userSpaceOnUse">
<stop stop-color="#ADCBE0" stop-opacity="0.1"/>
<stop offset="1" stop-color="#ADCBE0" stop-opacity="0.5"/>
</linearGradient>
</defs>
</svg>
