<svg width="174" height="175" viewBox="0 0 174 175" fill="none" xmlns="http://www.w3.org/2000/svg">
<path d="M58 0C47.428 0.0115804 37.2923 4.24055 29.8168 11.759C22.3413 19.2775 18.1365 29.4714 18.125 40.1041V60.1562C18.125 67.1927 23.8162 72.9166 30.8125 72.9166H58C54.6663 72.9214 51.3645 72.2646 48.2837 70.9837C45.203 69.7029 42.4037 67.8232 40.0465 65.4525C37.6893 63.0817 35.8203 60.2664 34.5468 57.1679C33.2733 54.0694 32.6202 50.7486 32.625 47.3958C49.5392 47.3958 58 34.6354 58 21.875C58 34.6354 66.4607 47.3958 83.375 47.3958C83.375 61.5198 72.0432 72.9166 58 72.9166H85.1875C92.1837 72.9166 97.875 67.1927 97.875 60.1562V40.1041C97.875 17.9885 79.9892 0 58 0ZM88.8125 87.4999H27.1875C12.18 87.4999 0 99.7499 0 114.844V140.365C0 143.354 2.465 145.833 5.4375 145.833H65.3225C65.7575 135.26 70.035 125.49 77.43 117.979L103.457 91.802C99.2525 89.1041 94.1775 87.4999 88.8125 87.4999ZM146.812 80.2083C143.241 80.1979 139.703 80.9009 136.404 82.2766C133.104 83.6522 130.109 85.673 127.593 88.2218L87.7177 128.326C85.1841 130.858 83.1753 133.87 81.8076 137.188C80.4398 140.506 79.7405 144.064 79.75 147.656C79.7596 154.905 82.627 161.855 87.7236 166.98C92.8202 172.106 99.7298 174.99 106.937 175C110.51 175.01 114.049 174.306 117.349 172.931C120.65 171.555 123.646 169.535 126.164 166.986L166.032 126.89C168.565 124.356 170.574 121.342 171.941 118.023C173.309 114.704 174.009 111.145 174 107.552C173.99 100.303 171.123 93.3536 166.026 88.2277C160.93 83.1019 154.02 80.2179 146.812 80.2083ZM115.906 156.676C113.513 159.089 110.33 160.417 106.937 160.417C99.9412 160.417 94.25 154.693 94.25 147.656C94.25 144.251 95.5695 141.043 97.9692 138.636L112.781 123.74L130.725 141.786L115.906 156.676ZM155.781 116.572L140.969 131.469L123.032 113.429L137.851 98.5249C140.237 96.1187 143.419 94.7916 146.812 94.7916C153.809 94.7916 159.5 100.516 159.5 107.552C159.5 110.957 158.18 114.166 155.781 116.572Z" fill="url(#paint0_linear_1685_4957)"/>
<defs>
<linearGradient id="paint0_linear_1685_4957" x1="87" y1="0" x2="87" y2="175" gradientUnits="userSpaceOnUse">
<stop stop-color="#EA473B" stop-opacity="0.2"/>
<stop offset="1" stop-color="#EA473B" stop-opacity="0.3"/>
</linearGradient>
</defs>
</svg>
