<svg width="128" height="128" viewBox="0 0 128 128" fill="none" xmlns="http://www.w3.org/2000/svg">
<path d="M0 96.7272C2.32882 114.229 17.2744 127.715 35.371 127.715C53.4676 127.715 68.4107 114.214 70.7395 96.7272H0ZM70.7395 87.1839C68.4107 69.6824 53.4651 56.1988 35.371 56.1988C17.2769 56.1988 2.33133 69.6924 0 87.1839H70.7395ZM125.415 82.6385L113.884 55.2937C102.795 55.9328 91.9008 58.4824 81.6842 62.8293C78.7362 64.0761 75.8717 65.4571 73.0909 66.9722C78.1389 74.6185 80.7529 83.6077 80.59 92.7613C80.4272 101.915 77.4952 110.806 72.1784 118.269C76.749 122.923 82.6199 126.095 89.0253 127.372C95.4306 128.648 102.073 127.97 108.086 125.425C124.663 118.406 132.434 99.2499 125.415 82.6385ZM98.9761 19.9483C91.9721 3.33938 72.8527 -4.43627 56.2752 2.58432C39.6977 9.6024 31.9392 28.759 38.9457 45.3704L39.5674 46.848C49.8618 47.8048 59.5114 52.2699 66.8915 59.4916C70.4755 57.464 74.1733 55.6433 77.9666 54.0386C88.1433 49.7085 98.9388 46.9994 109.958 46.0104L98.9761 19.9483ZM88.4952 29.8691C87.9186 30.1109 87.2999 30.2371 86.6744 30.2405C86.0489 30.2438 85.4289 30.1242 84.8497 29.8886C84.2706 29.6529 83.7436 29.3058 83.299 28.8671C82.8543 28.4283 82.5007 27.9065 82.2582 27.3314C81.3335 25.1126 79.9066 23.1372 78.0893 21.5597C76.2719 19.9822 74.1133 18.8454 71.7823 18.2381C70.5694 17.909 69.5362 17.1149 68.9078 16.0292C68.2795 14.9434 68.1069 13.6539 68.4278 12.4418C68.7486 11.2296 69.5369 10.1931 70.6208 9.55824C71.7046 8.92334 72.9962 8.7415 74.2139 9.05236C77.9567 10.0264 81.423 11.8505 84.3419 14.3822C87.2607 16.9138 89.553 20.0844 91.0396 23.6461C91.2824 24.2213 91.4093 24.8386 91.4128 25.4627C91.4164 26.0868 91.2966 26.7055 91.0603 27.2834C90.824 27.8614 90.4758 28.3872 90.0357 28.8308C89.5956 29.2745 89.0721 29.6273 88.4952 29.8691Z" fill="url(#paint0_linear_1685_4970)"/>
<defs>
<linearGradient id="paint0_linear_1685_4970" x1="64" y1="0" x2="64" y2="128" gradientUnits="userSpaceOnUse">
<stop stop-color="#EA473B" stop-opacity="0.2"/>
<stop offset="1" stop-color="#EA473B" stop-opacity="0.3"/>
</linearGradient>
</defs>
</svg>
