<svg width="34" height="30" viewBox="0 0 34 30" fill="none" xmlns="http://www.w3.org/2000/svg">
<path d="M29.3125 18.2578C29.1354 18.3379 28.9577 18.4161 28.7793 18.4883C26.2296 19.5199 22.8765 20.1006 19.4561 20.2861C19.4284 20.2876 19.4007 20.2881 19.373 20.2881L14.498 20.2812C14.4702 20.2812 14.4419 20.2799 14.4141 20.2783C11.0189 20.0842 7.69681 19.5002 5.17188 18.4688C5.00977 18.4025 4.84851 18.3316 4.6875 18.2588V26.2969C4.6875 26.4996 4.85977 26.6719 5.0625 26.6719H28.9375C29.1401 26.6719 29.3125 26.4995 29.3125 26.2969V18.2578ZM30.5625 8.67188C30.5625 8.46764 30.3917 8.29688 30.1875 8.29688H3.8125C3.60821 8.29688 3.4375 8.46758 3.4375 8.67188V13.1094C3.43761 13.8053 4.06599 14.7761 6.30664 15.6914C8.40018 16.5466 11.3418 17.0948 14.541 17.2812L19.3262 17.2871C22.5547 17.1094 25.5328 16.5654 27.6543 15.707C29.9242 14.7886 30.5624 13.8101 30.5625 13.1094V8.67188ZM22.75 3.8418C22.7499 3.56272 22.5154 3.32824 22.2363 3.32812H11.7637C11.4846 3.32824 11.2501 3.56276 11.25 3.8418V5.29688H22.75V3.8418ZM25.75 5.29688H30.1875C32.0486 5.29688 33.5625 6.81086 33.5625 8.67188V13.1094C33.5625 14.3455 33.0718 15.3653 32.3125 16.2031V26.2969C32.3125 28.1564 30.797 29.6719 28.9375 29.6719H5.0625C3.20311 29.6719 1.6875 28.1567 1.6875 26.2969V16.2041C0.928117 15.3663 0.43755 14.3458 0.4375 13.1094V8.67188C0.4375 6.81079 1.95129 5.29688 3.8125 5.29688H8.25V3.8418C8.25011 1.90591 9.82778 0.328235 11.7637 0.328125H22.2363C24.1723 0.328235 25.7499 1.90594 25.75 3.8418V5.29688Z" fill="white" fill-opacity="0.6"/>
</svg>
